<svg width="136" height="93" viewBox="0 0 136 93" fill="none" xmlns="http://www.w3.org/2000/svg">
<rect width="136" height="93" fill="#1E1E1E"/>
<path d="M115.31 92.24C123.929 92.24 129.902 90.2773 133.23 86.352C135.022 84.304 135.918 82 135.918 79.44C135.918 73.296 131.31 66.5973 122.094 59.344C119.108 56.9547 116.249 55.76 113.518 55.76C112.836 55.76 112.494 55.888 112.494 56.144C112.494 56.7413 113.561 57.4667 115.694 58.32C119.364 59.856 122.521 62.672 125.167 66.768C127.897 70.9493 129.262 74.9173 129.262 78.672C129.262 85.584 123.801 89.04 112.878 89.04C106.137 89.04 100.164 88.016 94.9585 85.968C83.5238 81.5307 74.3932 75.7707 67.5665 68.688C61.5932 62.6293 58.6065 56.8267 58.6065 51.28C58.6065 44.5387 62.7025 41.168 70.8945 41.168C83.8652 41.168 93.5078 39.5467 99.8225 36.304C105.028 33.6587 107.63 30.16 107.63 25.808C107.63 18.2987 101.956 12.0693 90.6065 7.12C81.3905 2.93866 72.6012 0.848 64.2385 0.848C57.4118 0.848 52.0358 2.256 48.1105 5.072C47.0865 5.66933 46.5745 6.52266 46.5745 7.632C46.5745 9.25333 47.5985 10.9173 49.6465 12.624C51.6092 14.3307 53.0598 15.0987 53.9985 14.928C54.1692 14.928 53.8705 14.3733 53.1025 13.264C51.9932 11.8987 51.4385 10.6613 51.4385 9.55199C51.4385 8.528 51.8225 7.632 52.5905 6.864C54.8945 4.38933 59.1185 3.15199 65.2625 3.15199C72.0892 3.15199 79.0865 4.64533 86.2545 7.632C93.7638 10.8747 98.3292 14.672 99.9505 19.024C100.804 21.2427 101.23 23.248 101.23 25.04C101.23 32.6347 90.6065 36.432 69.3585 36.432C56.5585 36.432 50.1585 40.272 50.1585 47.952C50.1585 54.4373 54.2972 61.8187 62.5745 70.096C71.0225 78.3733 80.1532 84.2187 89.9665 87.632C98.7558 90.704 107.204 92.24 115.31 92.24Z" fill="white"/>
<path d="M20.6895 92.24C12.0708 92.24 6.0975 90.2773 2.7695 86.352C0.9775 84.304 0.0815001 82 0.0815001 79.44C0.0815001 73.296 4.6895 66.5973 13.9055 59.344C16.8922 56.9547 19.7508 55.76 22.4815 55.76C23.1642 55.76 23.5055 55.888 23.5055 56.144C23.5055 56.7413 22.4388 57.4667 20.3055 58.32C16.6362 59.856 13.4788 62.672 10.8335 66.768C8.10283 70.9493 6.7375 74.9173 6.7375 78.672C6.7375 85.584 12.1988 89.04 23.1215 89.04C29.8628 89.04 35.8362 88.016 41.0415 85.968C52.4762 81.5307 61.6068 75.7707 68.4335 68.688C74.4068 62.6293 77.3935 56.8267 77.3935 51.28C77.3935 44.5387 73.2975 41.168 65.1055 41.168C52.1348 41.168 42.4922 39.5467 36.1775 36.304C30.9722 33.6587 28.3695 30.16 28.3695 25.808C28.3695 18.2987 34.0442 12.0693 45.3935 7.12C54.6095 2.93866 63.3988 0.848 71.7615 0.848C78.5882 0.848 83.9642 2.256 87.8895 5.072C88.9135 5.66933 89.4255 6.52266 89.4255 7.632C89.4255 9.25333 88.4015 10.9173 86.3535 12.624C84.3908 14.3307 82.9402 15.0987 82.0015 14.928C81.8308 14.928 82.1295 14.3733 82.8975 13.264C84.0068 11.8987 84.5615 10.6613 84.5615 9.55199C84.5615 8.528 84.1775 7.632 83.4095 6.864C81.1055 4.38933 76.8815 3.15199 70.7375 3.15199C63.9108 3.15199 56.9135 4.64533 49.7455 7.632C42.2362 10.8747 37.6708 14.672 36.0495 19.024C35.1962 21.2427 34.7695 23.248 34.7695 25.04C34.7695 32.6347 45.3935 36.432 66.6415 36.432C79.4415 36.432 85.8415 40.272 85.8415 47.952C85.8415 54.4373 81.7028 61.8187 73.4255 70.096C64.9775 78.3733 55.8468 84.2187 46.0335 87.632C37.2442 90.704 28.7962 92.24 20.6895 92.24Z" fill="white"/>
</svg>
